<?xml version="1.0" encoding="utf-8"?>
<!-- Generator: Adobe Illustrator 26.0.0, SVG Export Plug-In . SVG Version: 6.00 Build 0)  -->
<svg version="1.1" id="Layer_1" xmlns="http://www.w3.org/2000/svg" xmlns:xlink="http://www.w3.org/1999/xlink" x="0px" y="0px"
	 viewBox="0 0 18.2 22.1" style="enable-background:new 0 0 18.2 22.1;" xml:space="preserve">
<style type="text/css">
	.st0{fill:#374FFE;}
</style>
<g id="Path_19972" transform="translate(0 -1.438)">
	<path class="st0" d="M0,1.4v20.9c0,1.2,1.5,1.7,2.2,0.8l5.9-7.2c0.5-0.6,1.4-0.6,1.9,0l5.9,7.2c0.7,0.9,2.2,0.4,2.2-0.8l0-20.9
		l-0.1,0c0,0,0,0,0,0c0,0-0.1,0-0.2,0l-0.4,0h-0.3v20.9c0,0.3-0.3,0.3-0.3,0.3c-0.1,0-0.1,0-0.2-0.1l-5.9-7.2
		c-0.4-0.5-1.1-0.8-1.7-0.8c-0.7,0-1.3,0.3-1.7,0.8l-5.9,7.2c-0.1,0.1-0.1,0.1-0.2,0.1c0,0-0.3,0-0.3-0.3V1.4"/>
</g>
</svg>
