<?xml version="1.0" encoding="utf-8"?>
<!-- Generator: Adobe Illustrator 26.0.0, SVG Export Plug-In . SVG Version: 6.00 Build 0)  -->
<svg version="1.1" id="Layer_1" xmlns="http://www.w3.org/2000/svg" xmlns:xlink="http://www.w3.org/1999/xlink" x="0px" y="0px"
	 viewBox="0 0 27.8 17.7" style="enable-background:new 0 0 27.8 17.7;" xml:space="preserve">
<style type="text/css">
	.st0{clip-path:url(#SVGID_00000007403207428676308960000007984722376449090210_);}
	.st1{fill:#374FFE;}
	.st2{font-family:'Franklin Gothic Heavy';}
	.st3{font-size:7.4454px;}
</style>
<g>
	<g id="Group_14113" transform="translate(0 0)">
		<g id="Group_14104" transform="translate(0 0)">
			<g>
				<defs>
					<rect id="SVGID_1_" width="27.8" height="17.7"/>
				</defs>
				<clipPath id="SVGID_00000069357343605928106460000009664074614616561291_">
					<use xlink:href="#SVGID_1_"  style="overflow:visible;"/>
				</clipPath>
				<g id="Group_14103" style="clip-path:url(#SVGID_00000069357343605928106460000009664074614616561291_);">
					<path id="Path_6260" class="st1" d="M5.7,17.7c-1.7,0-3.1-1.3-3.2-3L2.4,14h20.2c0.8,0,1.4-0.6,1.4-1.4V2.4l0.7,0.1
						c1.7,0.1,3,1.6,3,3.3v8.7c0,1.8-1.5,3.3-3.3,3.3C24.5,17.7,5.7,17.7,5.7,17.7z M4,15.3c0.3,0.7,1,1.1,1.8,1.1h18.7
						c1.1,0,2-0.9,2-2c0,0,0,0,0,0V5.7c0-0.8-0.4-1.5-1.1-1.8v8.7c0,1.5-1.2,2.7-2.7,2.7L4,15.3z"/>
					<path id="Path_6261" class="st1" d="M2.6,15.3c-1.5,0-2.6-1.2-2.6-2.7v-10C0,1.2,1.2,0,2.6,0h20c1.5,0,2.7,1.2,2.7,2.6v10
						c0,1.5-1.2,2.7-2.7,2.7L2.6,15.3z M2.6,1.3c-0.8,0-1.4,0.6-1.4,1.4v10c0,0.8,0.6,1.4,1.4,1.4h20c0.8,0,1.4-0.6,1.4-1.4v-10
						c0-0.8-0.6-1.4-1.4-1.4L2.6,1.3z"/>
					<path id="Path_6262" class="st1" d="M0.6,4.8H0V2.7C0,1.2,1.2,0,2.6,0h2.2v0.6C4.8,2.9,2.9,4.8,0.6,4.8 M2.6,1.3
						c-0.8,0-1.4,0.6-1.4,1.4c0,0,0,0,0,0v0.8c1.1-0.2,1.9-1.1,2.2-2.2L2.6,1.3z"/>
					<path id="Path_6263" class="st1" d="M25.4,4.8h-0.6c-2.3,0-4.2-1.9-4.2-4.2V0h2.2c1.5,0,2.6,1.2,2.6,2.7L25.4,4.8z M21.9,1.3
						c0.2,1.1,1.1,1.9,2.2,2.2V2.7c0-0.8-0.6-1.4-1.4-1.4c0,0,0,0,0,0L21.9,1.3z"/>
					<path id="Path_6264" class="st1" d="M4.8,15.3H2.6c-1.5,0-2.6-1.2-2.6-2.7v-2.2h0.6c2.3,0,4.2,1.9,4.2,4.2V15.3z M1.3,11.9v0.8
						c0,0.8,0.6,1.4,1.4,1.4c0,0,0,0,0,0h0.8C3.2,12.9,2.4,12.1,1.3,11.9"/>
					<path id="Path_6265" class="st1" d="M21.2,15.3h-0.6v-0.6c0-2.3,1.9-4.2,4.2-4.2h0.6v2.2c0,1.5-1.2,2.6-2.6,2.7L21.2,15.3z
						 M21.9,14h0.8c0.8,0,1.4-0.6,1.4-1.4c0,0,0,0,0,0v-0.8C23,12.1,22.2,12.9,21.9,14"/>
				</g>
			</g>
		</g>
	</g>
	<text transform="matrix(0.9509 0 0 1 2.7346 10.5469)" class="st1 st2 st3">NETTO</text>
</g>
</svg>
