<svg width="24" height="24" viewBox="0 0 24 24" fill="none" xmlns="http://www.w3.org/2000/svg">
<g id="TwitterLogo">
<path id="Vector" d="M23.0193 6.53541C22.9768 6.43257 22.9048 6.34463 22.8124 6.28272C22.7199 6.22081 22.6112 6.18771 22.4999 6.1876H19.5374C19.1626 5.51161 18.6151 4.94717 17.9509 4.55189C17.2866 4.15661 16.5294 3.94463 15.7565 3.9376C15.1951 3.93041 14.6379 4.03551 14.1178 4.24674C13.5976 4.45797 13.1249 4.77106 12.7274 5.1676C12.3178 5.56949 11.9927 6.04922 11.7711 6.57858C11.5496 7.10795 11.4361 7.67626 11.4374 8.2501V9.06198C7.49992 8.12448 4.25617 4.88823 4.21867 4.85448C4.14312 4.77945 4.04783 4.72741 3.94387 4.7044C3.83992 4.68139 3.73157 4.68836 3.63141 4.72449C3.53126 4.76062 3.44342 4.82444 3.3781 4.90852C3.31278 4.9926 3.27266 5.0935 3.26242 5.19948C2.86398 9.62635 4.14554 12.5823 5.29117 14.2829C5.88341 15.1738 6.61345 15.9649 7.45398 16.6267C6.00179 18.4079 3.57836 19.3351 3.55211 19.3454C3.47204 19.375 3.39978 19.4225 3.34078 19.4842C3.28178 19.5459 3.23759 19.6202 3.21158 19.7015C3.18556 19.7828 3.17839 19.869 3.19061 19.9535C3.20283 20.038 3.23412 20.1186 3.28211 20.1892C3.37492 20.3279 4.29179 21.5626 7.49992 21.5626C14.0512 21.5626 19.5215 16.5001 20.0455 9.99948L22.8974 7.14854C22.9761 7.06986 23.0297 6.9696 23.0514 6.86047C23.0731 6.75133 23.0619 6.63821 23.0193 6.53541ZM19.1024 9.3526C19.0055 9.44925 18.9472 9.57791 18.9384 9.71448C18.5559 15.7276 13.5309 20.4376 7.49992 20.4376C6.18742 20.4376 5.36617 20.2117 4.86929 19.9876C5.92867 19.4551 7.65554 18.4051 8.71773 16.8123C8.76009 16.7486 8.78901 16.6769 8.80271 16.6016C8.81641 16.5263 8.81461 16.449 8.79742 16.3745C8.78005 16.2994 8.74746 16.2288 8.70166 16.1668C8.65586 16.1049 8.59783 16.0531 8.53117 16.0145C8.51898 16.007 7.30023 15.2776 6.18742 13.6032C4.87492 11.6251 4.24773 9.22791 4.31242 6.4576C5.70742 7.63885 8.58461 9.74729 11.9062 10.3014C11.9869 10.315 12.0696 10.3109 12.1485 10.2892C12.2274 10.2676 12.3007 10.2291 12.3632 10.1762C12.4256 10.1234 12.4758 10.0575 12.5103 9.98329C12.5447 9.90904 12.5625 9.82818 12.5624 9.74635V8.2501C12.5616 7.82528 12.6456 7.40457 12.8097 7.01271C12.9737 6.62084 13.2145 6.26573 13.5177 5.96823C13.8097 5.67669 14.157 5.4464 14.5392 5.29089C14.9214 5.13537 15.3308 5.05776 15.7434 5.0626C17.0024 5.07854 18.1809 5.84729 18.6721 6.9751C18.7159 7.07543 18.788 7.1608 18.8796 7.22075C18.9712 7.2807 19.0783 7.31262 19.1877 7.3126H21.1415L19.1024 9.3526Z" fill="white"/>
</g>
</svg>
