<?xml version="1.0" standalone="no"?>
<!DOCTYPE svg PUBLIC "-//W3C//DTD SVG 20010904//EN"
 "http://www.w3.org/TR/2001/REC-SVG-20010904/DTD/svg10.dtd">
<svg version="1.0" xmlns="http://www.w3.org/2000/svg"
 width="512.000000pt" height="512.000000pt" viewBox="0 0 512.000000 512.000000"
 preserveAspectRatio="xMidYMid meet">
<metadata>
Created by potrace 1.14, written by Peter Selinger 2001-2017
</metadata>
<g transform="translate(0.000000,512.000000) scale(0.100000,-0.100000)"
fill="#000000" stroke="none">
<path d="M1350 4679 c-147 -19 -317 -84 -450 -171 -84 -54 -234 -204 -288
-288 -94 -143 -153 -307 -173 -474 -7 -60 -9 -488 -7 -1256 l3 -1165 28 -100
c103 -376 386 -659 762 -762 l100 -28 1190 -3 c853 -2 1213 0 1270 8 455 65
830 440 895 895 8 57 10 417 8 1270 l-3 1190 -28 100 c-103 376 -386 659 -762
762 l-100 28 -1190 1 c-655 1 -1219 -2 -1255 -7z m1509 -1236 c44 -33 71 -82
71 -128 0 -56 -431 -1559 -458 -1594 -62 -84 -193 -84 -253 0 -47 66 -48 63
189 890 121 422 228 779 238 794 40 62 153 82 213 38z m-843 -328 c58 -44 80
-123 53 -192 -6 -15 -85 -103 -177 -196 l-167 -167 162 -163 c88 -89 168 -176
177 -194 46 -93 -15 -209 -121 -229 -72 -13 -103 10 -360 269 -337 338 -337
296 -1 634 133 133 255 249 272 258 46 23 117 15 162 -20z m1249 16 c26 -12
124 -103 272 -252 335 -338 335 -300 -5 -642 -252 -253 -284 -276 -355 -263
-106 20 -168 136 -121 229 9 18 89 105 177 195 l161 162 -161 163 c-88 89
-169 177 -178 196 -22 43 -16 121 12 159 23 32 97 72 133 72 14 0 43 -9 65
-19z"/>
</g>
</svg>
