<svg id="Group_23244" data-name="Group 23244" xmlns="http://www.w3.org/2000/svg" width="16.961" height="16.156" viewBox="0 0 16.961 16.156">
    <path id="Icon_material-work" data-name="Icon material-work" d="M9.371,2.5h3.22a2.044,2.044,0,0,1,2.041,2.041V5.72h2.788a2.044,2.044,0,0,1,2.041,2.041v8.854a2.044,2.044,0,0,1-2.041,2.041H4.541A2.044,2.044,0,0,1,2.5,16.615l.008-8.855A2.029,2.029,0,0,1,4.541,5.72H7.329V4.541A2.044,2.044,0,0,1,9.371,2.5Zm8.049,15.293A1.18,1.18,0,0,0,18.6,16.615V7.761a1.18,1.18,0,0,0-1.178-1.178H14.2a.431.431,0,0,1-.431-.431V4.541A1.18,1.18,0,0,0,12.59,3.363H9.371A1.18,1.18,0,0,0,8.192,4.541v1.61a.431.431,0,0,1-.431.431H4.541a1.162,1.162,0,0,0-1.17,1.178l-.008,8.855a1.18,1.18,0,0,0,1.178,1.178ZM9.371,4.11h3.22a.431.431,0,0,1,.431.431v1.61a.431.431,0,0,1-.431.431H9.371a.431.431,0,0,1-.431-.431V4.541A.431.431,0,0,1,9.371,4.11Zm2.788.863H9.8V5.72h2.357Z" transform="translate(-2.5 -2.5)" fill="#374ffe"/>
    <path id="Rectangle_9554" data-name="Rectangle 9554" d="M.794-.5h2.99A1.3,1.3,0,0,1,5.078.794V1.9A1.3,1.3,0,0,1,3.784,3.192H.794A1.3,1.3,0,0,1-.5,1.9V.794A1.3,1.3,0,0,1,.794-.5Zm2.99,2.829A.432.432,0,0,0,4.215,1.9V.794A.432.432,0,0,0,3.784.363H.794A.432.432,0,0,0,.363.794V1.9a.432.432,0,0,0,.431.431Z" transform="translate(6.158 9.664)" fill="#374ffe"/>
    <g id="Group_23210" data-name="Group 23210" transform="translate(0.053 6.769)">
        <path id="Path_19895" data-name="Path 19895" d="M7.735,25.25A6.612,6.612,0,0,1,4.178,24.2a8.014,8.014,0,0,1-2.617-2.815l.75-.426a6.245,6.245,0,0,0,5.424,3.426Z" transform="translate(-1.561 -20.961)" fill="#374ffe"/>
        <path id="Path_19896" data-name="Path 19896" d="M22,25.252V24.39a6.246,6.246,0,0,0,5.448-3.412l.766.4a7.3,7.3,0,0,1-2.529,2.782A6.807,6.807,0,0,1,22,25.252Z" transform="translate(-11.354 -20.963)" fill="#374ffe"/>
    </g>
</svg>