<svg xmlns="http://www.w3.org/2000/svg" xmlns:xlink="http://www.w3.org/1999/xlink" width="12.83" height="14.27" viewBox="0 0 12.83 14.27">
    <defs>
        <clipPath id="clip-path">
            <rect id="Rectangle_2933" data-name="Rectangle 2933" width="12.83" height="14.27" transform="translate(0 0)" fill="none"/>
        </clipPath>
    </defs>
    <g id="Group_15034" data-name="Group 15034" transform="translate(0 0)">
        <g id="Group_15034-2" data-name="Group 15034" clip-path="url(#clip-path)">
            <path id="Path_6209" data-name="Path 6209" d="M10.974,14.271H1.856A1.861,1.861,0,0,1,0,12.414V3.3A1.86,1.86,0,0,1,1.857,1.442h.926V1.117A1.1,1.1,0,0,1,3.9,0,1.151,1.151,0,0,1,4.968.582,1.132,1.132,0,0,1,5.1,1.11v.332H7.726V1.117A1.12,1.12,0,0,1,8.842,0h0A1.151,1.151,0,0,1,9.91.582a1.122,1.122,0,0,1,.136.526v.329h.927A1.86,1.86,0,0,1,12.83,3.294v9.121a1.857,1.857,0,0,1-1.856,1.856M1.857,2.442A.859.859,0,0,0,1,3.3v9.115a.86.86,0,0,0,.857.857h9.116a.855.855,0,0,0,.857-.856V3.294a.859.859,0,0,0-.857-.857h-.927v.327A1.12,1.12,0,0,1,8.929,3.879a1.249,1.249,0,0,1-.621-.135.5.5,0,0,1,.476-.88.117.117,0,0,0,.058.015c.152,0,.2-.053.2-.117V1.113C9.012,1.024,8.975,1,8.934,1h0c-.154,0-.207.052-.207.116v.825a.5.5,0,0,1-.5.5H5.1v.322A1.12,1.12,0,0,1,3.986,3.879a1.246,1.246,0,0,1-.619-.135.5.5,0,0,1,.474-.881.115.115,0,0,0,.06.016c.149,0,.2-.052.2-.117V1.113C4.069,1.024,4.032,1,3.992,1h0c-.155,0-.208.052-.208.116v.825a.5.5,0,0,1-.5.5Z" fill="#2b3fd1"/>
        </g>
    </g>
</svg>