<svg enable-background="new 0 0 30 30" version="1.1" width="30" height="30" viewBox="0 0 30 30" xml:space="preserve" xmlns="http://www.w3.org/2000/svg">
<style type="text/css">
	.st0{fill:#2962FF;}
</style>

	<path class="st0" d="M29.4,7.8C29,6.5,28,5.5,26.7,5.1C24.4,4.5,15,4.5,15,4.5s-9.4,0-11.7,0.6C2,5.5,1,6.5,0.6,7.8   C0,10.1,0,15,0,15s0,4.9,0.6,7.2C1,23.5,2,24.5,3.3,24.9C5.6,25.5,15,25.5,15,25.5s9.4,0,11.7-0.6c1.3-0.3,2.3-1.4,2.7-2.7   C30,19.9,30,15,30,15S30,10.1,29.4,7.8z M12,19.5v-9l7.8,4.5L12,19.5z"/>

</svg>
