<svg xmlns="http://www.w3.org/2000/svg" xmlns:xlink="http://www.w3.org/1999/xlink" width="22.681" height="23.447" viewBox="0 0 22.681 23.447">
  <defs>
    <clipPath id="clip-path">
      <rect id="Rectangle_2976" data-name="Rectangle 2976" width="21.903" height="22.697" transform="translate(0 0)" fill="#55ce8e"/>
    </clipPath>
  </defs>
  <g id="Group_15247" data-name="Group 15247" transform="translate(0.389 0.375)">
    <g id="Group_15246" data-name="Group 15246" transform="matrix(0.999, -0.035, 0.035, 0.999, -0.389, 0.39)" clip-path="url(#clip-path)">
      <path id="Path_13705" data-name="Path 13705" d="M9.74,7.531l.354.388-2.7,2.7c-.5-.55-1-1.1-1.49-1.654a.635.635,0,0,0-.666-.248A4.5,4.5,0,0,1,.229,2.892a.2.2,0,0,1,.039-.061c.4.407.818.809,1.208,1.229.586.631.981.659,1.631.073.425-.382.852-.756,1.272-1.143a.9.9,0,0,0,.073-1.415C4.043,1.107,3.622.646,3.193.169A4.47,4.47,0,0,1,8.572,5.775a.6.6,0,0,0,.154.659l.875.959c.045.045.093.091.139.139" transform="translate(0 0)" fill="#55ce8e"/>
      <path id="Path_13706" data-name="Path 13706" d="M60.133,62.092a.444.444,0,0,1-.039.059c-.4-.407-.818-.809-1.211-1.229-.586-.631-.981-.659-1.631-.073-.425.379-.852.756-1.272,1.143a.9.9,0,0,0-.07,1.413c.407.47.827.929,1.256,1.408a4.47,4.47,0,0,1-5.379-5.606.6.6,0,0,0-.152-.656l-.877-.961c-.048-.043-.093-.091-.139-.139l-.034-.039,2.694-2.7q.589.651,1.172,1.3a.63.63,0,0,0,.666.245,4.5,4.5,0,0,1,5.016,5.829" transform="translate(-39.095 -42.286)" fill="#55ce8e"/>
      <path id="Path_13707" data-name="Path 13707" d="M23.047,5.117,21.961,6.2a.283.283,0,0,1-.4,0l0,0L18.946,3.59a.283.283,0,0,1,0-.4l0,0L20.032,2.1a1.133,1.133,0,0,1,1.6,0l1.416,1.416a1.129,1.129,0,0,1,0,1.6s0,0,0,0m-5.034-1L2.417,19.737l-.5,2.862a.566.566,0,0,0,.46.655.559.559,0,0,0,.194,0l2.862-.5,15.6-15.616a.283.283,0,0,0,0-.4l0,0L18.418,4.121a.286.286,0,0,0-.4,0ZM4.832,19.208a.328.328,0,0,1,0-.464l0,0L17.869,5.683a.33.33,0,0,1,.466.466L5.3,19.208a.328.328,0,0,1-.464,0l0,0m-.85,1.981H5.112v.855l-1.519.266-.733-.733.266-1.519h.855Z" transform="translate(-1.476 -1.369)" fill="#55ce8e"/>
    </g>
  </g>
</svg>
