<svg xmlns="http://www.w3.org/2000/svg" width="21.077" height="15.853" viewBox="0 0 21.077 15.853"><defs><style>.a{fill:none;stroke:#127c30;stroke-linecap:round;stroke-linejoin:round;}</style></defs><g transform="translate(0.5 0.5)"><path class="a" d="M57.6,14.593H45.741A2.741,2.741,0,0,1,43,11.852V5.613a2.741,2.741,0,0,1,2.741-2.741h9.894a2.741,2.741,0,0,1,1.6.515l1.959,1.407A2.741,2.741,0,0,1,60.336,7.02v4.832A2.741,2.741,0,0,1,57.6,14.593Z" transform="translate(-43 -2.872)"/><path class="a" d="M59.026,15.45H64.46V12.8" transform="translate(-44.383 -3.729)"/><rect class="a" width="3.655" height="6.396" transform="translate(10.349 5.326)"/><rect class="a" width="3.655" height="3.655" transform="translate(2.741 2.777)"/><path class="a" d="M50.977,15.7a1.774,1.774,0,1,1-2.284,0" transform="translate(-43.437 -3.979)"/></g></svg>