<svg xmlns="http://www.w3.org/2000/svg" width="18.208" height="22.126" viewBox="0 0 18.208 22.126">
    <g id="Path_19972" data-name="Path 19972" transform="translate(0 -1.438)" fill="#5E67EA">
        <path d="M 16.9457950592041 23.06391716003418 C 16.79006576538086 23.06391716003418 16.56500434875488 23.01591682434082 16.37715530395508 22.7872371673584 L 10.45692539215088 15.58159637451172 C 10.1233549118042 15.17534637451172 9.630245208740234 14.94228649139404 9.104145050048828 14.94228649139404 C 8.578165054321289 14.94228649139404 8.08503532409668 15.17529678344727 7.751204967498779 15.58157634735107 L 1.831165075302124 22.78719711303711 C 1.643285036087036 23.01591682434082 1.418225049972534 23.06391716003418 1.262495040893555 23.06391716003418 C 0.8876850605010986 23.06391716003418 0.5000050663948059 22.78215599060059 0.5000050663948059 22.3106575012207 L 0.5000050663948059 1.937576770782471 L 17.70829582214355 1.937576770782471 L 17.70829582214355 22.3106575012207 C 17.70829582214355 22.78215599060059 17.32060432434082 23.06391716003418 16.9457950592041 23.06391716003418 Z" stroke="none"/>
        <path d="M 0.9999942779541016 2.437576293945312 L 0.9999942779541016 22.3106575012207 C 0.9999942779541016 22.56101608276367 1.25987434387207 22.56391716003418 1.262495040893555 22.56391716003418 C 1.335124969482422 22.56391716003418 1.391345977783203 22.5349063873291 1.44482421875 22.46979713439941 L 7.364894866943359 15.26414680480957 C 7.794065475463867 14.74184703826904 8.427994728088379 14.44228649139404 9.104145050048828 14.44228649139404 C 9.780485153198242 14.44228649139404 10.4144344329834 14.74193668365479 10.84325504302979 15.26418685913086 L 16.76351547241211 22.46986770629883 C 16.81694412231445 22.5349063873291 16.87316513061523 22.56391716003418 16.9457950592041 22.56391716003418 C 16.94841575622559 22.56391716003418 17.20828437805176 22.56101608276367 17.20828437805176 22.3106575012207 L 17.20828437805176 2.437576293945312 L 0.9999942779541016 2.437576293945312 M -5.7220458984375e-06 1.437576293945312 L 18.20828437805176 1.437576293945312 L 18.20828437805176 22.3106575012207 C 18.20828437805176 23.48484039306641 16.73635482788086 24.01224136352539 15.99079513549805 23.10460662841797 L 10.07059478759766 15.89900684356689 C 9.570474624633789 15.28992748260498 8.637995719909668 15.28992748260498 8.137515068054199 15.89900684356689 L 2.217494964599609 23.10460662841797 C 1.471921920776367 24.01225662231445 -5.7220458984375e-06 23.48482894897461 -5.7220458984375e-06 22.3106575012207 L -5.7220458984375e-06 1.437576293945312 Z" stroke="none"/>
    </g>
</svg>