<svg version="1.1" xmlns="http://www.w3.org/2000/svg" xmlns:xlink="http://www.w3.org/1999/xlink" x="0px" y="0px" viewBox="0 0 21 21" style="enable-background:new 0 0 21 21;" xml:space="preserve">
<style type="text/css">
	.st0{fill:none;stroke:#000000;stroke-width:2;stroke-linecap:round;stroke-linejoin:round;stroke-miterlimit:10;}
	.st1{display:none;fill:none;stroke:#000000;stroke-width:2;stroke-linecap:round;stroke-linejoin:round;stroke-miterlimit:10;}
	.st2{fill:none;stroke:#000000;stroke-width:2;}
	.st3{fill:none;stroke:#000000;stroke-width:2;stroke-linecap:round;stroke-linejoin:round;}
	.st4{fill:none;stroke:#304FFE;stroke-width:2;stroke-linecap:round;stroke-linejoin:round;}
	.st5{fill:none;stroke:#304FFE;stroke-width:1.5;stroke-linecap:round;stroke-linejoin:round;}
	.st6{fill:none;stroke:#304FFE;stroke-linecap:round;stroke-linejoin:round;}
	.st7{fill:none;stroke:#CCCCCC;stroke-width:2;stroke-linecap:round;stroke-linejoin:round;}
	.st8{fill:none;stroke:#CCCCCC;stroke-width:1.5;stroke-linecap:round;stroke-linejoin:round;}
	.st9{fill:none;stroke:#CCCCCC;stroke-linecap:round;stroke-linejoin:round;}
	.st10{fill:none;stroke:#FFFFFF;stroke-width:2;stroke-linecap:round;stroke-linejoin:round;}
	.st11{fill:none;stroke:#FFFFFF;stroke-width:1.5;stroke-linecap:round;stroke-linejoin:round;}
	.st12{fill:none;stroke:#FFFFFF;stroke-linecap:round;stroke-linejoin:round;}
	.st13{fill:none;stroke:#EBEBEB;stroke-width:2;stroke-linecap:round;stroke-linejoin:round;}
</style>
    <g id="Layer_1">
	<g>
		<path class="st6" d="M14.13,13.61c0.53,0.67,1.09,1.3,1.7,1.9c0,0,4.67-4.47,4.67-8.67c0.01-2.58-2.08-4.67-4.65-4.68    c-1.15,0-2.25,0.42-3.11,1.18 M8.23,3.34C6.29,1.65,3.34,1.85,1.65,3.79C0.91,4.64,0.5,5.72,0.5,6.84c0,4.2,4.67,8.67,4.67,8.67    c0.58-0.58,1.13-1.19,1.63-1.83"/>
        <path class="st6" d="M10.47,2.84c-2.95,0-5.33,2.39-5.33,5.33c0,4.8,5.33,10.67,5.33,10.67s5.33-5.87,5.33-10.67    C15.8,5.23,13.41,2.84,10.47,2.84z"/>
        <circle class="st6" cx="10.5" cy="8.17" r="2"/>
	</g>
</g>
    <g id="Layer_2">
</g>
</svg>