<svg xmlns="http://www.w3.org/2000/svg" width="12.053" height="17.201" viewBox="0 0 12.053 17.201">
    <g id="Group_14283" data-name="Group 14283" transform="translate(0.5 0.5)">
        <path id="Path_6059" data-name="Path 6059" d="M1027.246,277.119h-.214a.5.5,0,0,1-.3-.1,15.716,15.716,0,0,1-2.809-2.885,12.81,12.81,0,0,1-2.812-7.728c0-3.273,1.473-4.854,2.708-5.6a6.375,6.375,0,0,1,3.156-.886h.325a6.374,6.374,0,0,1,3.156.886c1.235.75,2.708,2.331,2.708,5.6a12.81,12.81,0,0,1-2.812,7.728,15.71,15.71,0,0,1-2.809,2.885A.5.5,0,0,1,1027.246,277.119Zm-.269-16.2a5.419,5.419,0,0,0-2.637.741c-1.478.9-2.227,2.495-2.227,4.749,0,5.217,4.086,8.883,5.027,9.658a15.679,15.679,0,0,0,2.437-2.559,11.949,11.949,0,0,0,2.589-7.1c0-2.254-.749-3.852-2.227-4.749a5.419,5.419,0,0,0-2.637-.741h-.325Z" transform="translate(-1021.613 -260.418)" fill="#2b3fd1"/>
        <path id="Ellipse_303" data-name="Ellipse 303" d="M2.978-.5A3.478,3.478,0,1,1-.5,2.978,3.482,3.482,0,0,1,2.978-.5Zm0,5.957A2.478,2.478,0,1,0,.5,2.978,2.481,2.481,0,0,0,2.978,5.457Z" transform="translate(2.548 2.447)" fill="#2b3fd1"/>
    </g>
</svg>