<svg id="office-monthly-calendar" xmlns="http://www.w3.org/2000/svg" width="16.079" height="17.38" viewBox="0 0 16.079 17.38">
    <g id="Group_51" data-name="Group 51">
        <path id="Path_91" data-name="Path 91" d="M18.351,45.333H16.668a.6.6,0,0,0,0,1.2H17.79V59.916H3.955V46.532h1.5a.6.6,0,0,0,0-1.2H3.394a.583.583,0,0,0-.561.6V60.516a.583.583,0,0,0,.561.6H18.351a.583.583,0,0,0,.561-.6V45.932A.583.583,0,0,0,18.351,45.333Z" transform="translate(-2.833 -43.735)" fill="#999"/>
        <path id="Path_92" data-name="Path 92" d="M206.15,45.333h-1.589a.6.6,0,0,0,0,1.2h1.589a.6.6,0,0,0,0-1.2Z" transform="translate(-197.363 -43.735)" fill="#999"/>
        <path id="Path_93" data-name="Path 93" d="M89.7,351.333H88.394a.583.583,0,0,0-.561.6v1a.583.583,0,0,0,.561.6H89.7a.583.583,0,0,0,.561-.6v-1A.583.583,0,0,0,89.7,351.333Z" transform="translate(-85.029 -338.947)" fill="#999"/>
        <path id="Path_94" data-name="Path 94" d="M208.8,351.333h-1.4a.583.583,0,0,0-.561.6v1a.583.583,0,0,0,.561.6h1.4a.583.583,0,0,0,.561-.6v-1A.583.583,0,0,0,208.8,351.333Z" transform="translate(-200.102 -338.947)" fill="#999"/>
        <path id="Path_95" data-name="Path 95" d="M90.264,258.432a.583.583,0,0,0-.561-.6H88.394a.583.583,0,0,0-.561.6v1a.583.583,0,0,0,.561.6H89.7a.583.583,0,0,0,.561-.6Z" transform="translate(-85.029 -248.743)" fill="#999"/>
        <path id="Path_96" data-name="Path 96" d="M209.357,258.432a.583.583,0,0,0-.561-.6h-1.4a.583.583,0,0,0-.561.6v1a.583.583,0,0,0,.561.6h1.4a.583.583,0,0,0,.561-.6Z" transform="translate(-200.102 -248.743)" fill="#999"/>
        <path id="Path_97" data-name="Path 97" d="M330.536,257.833h-1.309a.583.583,0,0,0-.561.6v1a.583.583,0,0,0,.561.6h1.309a.583.583,0,0,0,.561-.6v-1A.583.583,0,0,0,330.536,257.833Z" transform="translate(-317.915 -248.743)" fill="#999"/>
        <path id="Path_98" data-name="Path 98" d="M87.833,162.1v1a.583.583,0,0,0,.561.6H89.7a.583.583,0,0,0,.561-.6v-1a.583.583,0,0,0-.561-.6H88.394A.583.583,0,0,0,87.833,162.1Z" transform="translate(-85.029 -155.807)" fill="#999"/>
        <path id="Path_99" data-name="Path 99" d="M209.357,162.1a.583.583,0,0,0-.561-.6h-1.4a.583.583,0,0,0-.561.6v1a.583.583,0,0,0,.561.6h1.4a.583.583,0,0,0,.561-.6Z" transform="translate(-200.102 -155.807)" fill="#999"/>
        <path id="Path_100" data-name="Path 100" d="M331.1,162.1a.583.583,0,0,0-.561-.6h-1.309a.583.583,0,0,0-.561.6v1a.583.583,0,0,0,.561.6h1.309a.583.583,0,0,0,.561-.6Z" transform="translate(-317.915 -155.807)" fill="#999"/>
        <path id="Path_101" data-name="Path 101" d="M122.955,4a.583.583,0,0,0,.561-.6V.6a.583.583,0,0,0-.561-.6h-.561a.583.583,0,0,0-.561.6V3.4a.583.583,0,0,0,.561.6Z" transform="translate(-117.907 0)" fill="#999"/>
        <path id="Path_102" data-name="Path 102" d="M318.455,0h-.561a.583.583,0,0,0-.561.6V3.4a.583.583,0,0,0,.561.6h.561a.583.583,0,0,0,.561-.6V.6A.583.583,0,0,0,318.455,0Z" transform="translate(-306.956)" fill="#999"/>
    </g>
</svg>