<svg xmlns="http://www.w3.org/2000/svg" width="14.345" height="15.482" viewBox="0 0 14.345 15.482">
    <g id="Group_14282" data-name="Group 14282" transform="translate(-133.026 -166.43)">
        <path id="Path_5983" data-name="Path 5983"
              d="M145.257,199.117H135.1a2.115,2.115,0,0,1-2.079-2.144v-1.048a4.515,4.515,0,0,1,4.495-4.515h.4l.1.05a5.233,5.233,0,0,0,2.213.523,4.721,4.721,0,0,0,2.122-.518l.107-.055h.407a4.5,4.5,0,0,1,3.266,1.355,4.394,4.394,0,0,1,1.23,3.22v1.053A2.124,2.124,0,0,1,145.257,199.117Zm-10.139-1h10.139a1.119,1.119,0,0,0,1.112-1.092v-1.063a3.4,3.4,0,0,0-.948-2.5,3.508,3.508,0,0,0-2.548-1.051H142.7a5.728,5.728,0,0,1-2.469.573h-.009a6.226,6.226,0,0,1-2.532-.573h-.171a3.513,3.513,0,0,0-3.5,3.514v1.061a1.115,1.115,0,0,0,1.092,1.131Z"
              transform="translate(0 -17.206)" fill="#595959"/>
        <path id="Ellipse_280" data-name="Ellipse 280"
              d="M3.352-.5A3.852,3.852,0,1,1-.5,3.352,3.856,3.856,0,0,1,3.352-.5Zm0,6.7A2.852,2.852,0,1,0,.5,3.352,2.855,2.855,0,0,0,3.352,6.2Z"
              transform="translate(136.882 166.93)" fill="#595959"/>
    </g>
</svg>