<svg xmlns="http://www.w3.org/2000/svg" width="16" height="16" viewBox="0 0 16 16">
    <g id="Group_23322" data-name="Group 23322" transform="translate(-1.424 6.442)">
        <g id="Ellipse_1346" data-name="Ellipse 1346" transform="translate(1.424 -6.442)" fill="#fff" stroke="#374ffe" stroke-width="1">
            <circle cx="8" cy="8" r="8" stroke="none"/>
            <circle cx="8" cy="8" r="7.5" fill="none"/>
        </g>
        <path id="Path_19954" data-name="Path 19954" d="M5.52-2.13a1.934,1.934,0,0,0-1.01-1.7c-.19-.12-.48-.27-.87-.46s-.62-.31-.69-.35a5.434,5.434,0,0,1-.5-.33.6.6,0,0,1-.24-.48c0-.41.34-.7.86-.7a2.175,2.175,0,0,1,1.48.69l.82-1.06a3.089,3.089,0,0,0-1.65-.94v-.97H2.45v.97A2.064,2.064,0,0,0,.67-5.4,2.1,2.1,0,0,0,1.7-3.62a9.108,9.108,0,0,0,1.11.59c.22.1.37.17.44.21.41.21.64.43.64.78,0,.44-.37.76-.96.76A1.953,1.953,0,0,1,1.28-2.33l-.99.95A2.874,2.874,0,0,0,2.41.09V1.12H3.67V.05A2.19,2.19,0,0,0,5.52-2.13Z" transform="translate(6.261 4.801)" fill="#374ffe"/>
    </g>
</svg>