<svg xmlns="http://www.w3.org/2000/svg" viewBox="0 0 64 64">
  <rect width="64" height="64" rx="16" fill="#000614"/>
  <path d="M20 22h24a6 6 0 0 1 6 6v19a6 6 0 0 1-6 6H20a6 6 0 0 1-6-6V28a6 6 0 0 1 6-6z" fill="#354bff"/>
  <path d="M25 22v-5a5 5 0 0 1 5-5h4a5 5 0 0 1 5 5v5h-5v-5h-4v5z" fill="#66e5ba"/>
  <path d="M14 33h36" stroke="#07101f" stroke-width="5" opacity=".35"/>
  <circle cx="40" cy="40" r="8" fill="none" stroke="#ffffff" stroke-width="4"/>
  <path d="m46 46 7 7" stroke="#ffffff" stroke-width="4" stroke-linecap="round"/>
  <path d="M22 31h20" stroke="#ffffff" stroke-width="4" stroke-linecap="round" opacity=".85"/>
</svg>
